<svg width="25" height="24" viewBox="0 0 25 24" fill="none" xmlns="http://www.w3.org/2000/svg">
<g clip-path="url(#clip0_948_6041)">
<path d="M10.3672 0.0653669C10.1563 0.159117 10.011 0.346617 9.94535 0.590367C9.80941 1.13412 10.1235 1.59349 10.686 1.6638C10.8219 1.67787 11.7125 1.68724 12.6641 1.67787L14.3985 1.6638L14.6188 1.53724C15.1907 1.19974 15.1578 0.379429 14.5532 0.0653669C14.375 -0.0283831 10.5782 -0.0283831 10.3672 0.0653669Z" fill="#0E522D"/>
<path d="M20.3421 2.95286C20.164 2.99505 19.9624 3.11692 19.8499 3.25286C19.6812 3.4638 19.6531 3.92786 19.8031 4.19505C19.8312 4.24661 20.4078 4.84192 21.0874 5.51692C22.1562 6.58099 22.3437 6.74505 22.4984 6.77317C23.1406 6.89505 23.6749 6.43099 23.5859 5.83099C23.5531 5.60599 23.5249 5.57317 22.3062 4.34505C21.6171 3.6513 21.0031 3.06067 20.9374 3.02786C20.7734 2.9388 20.5203 2.91067 20.3421 2.95286Z" fill="#0E522D"/>
<path d="M11.3281 3.46853C8.63278 3.79197 6.25622 5.06228 4.56872 7.07791C2.53434 9.50134 1.72809 12.6842 2.35622 15.7967C3.23278 20.1232 6.80934 23.4092 11.2343 23.9529C11.8906 24.0326 13.2359 24.0092 13.9297 23.9107C16.9156 23.4701 19.4515 21.8388 21.125 19.2888C21.4672 18.7638 21.9781 17.6998 22.1937 17.0623C22.5875 15.9045 22.7328 14.9998 22.7328 13.7107C22.7328 11.9998 22.4234 10.6592 21.6875 9.16384C20.2156 6.17322 17.4968 4.14822 14.164 3.55759C13.5265 3.44509 11.9422 3.39822 11.3281 3.46853ZM12.7203 7.92634C12.8984 7.99197 13.1093 8.19353 13.1843 8.37634C13.2359 8.49822 13.25 8.98572 13.25 10.8748V13.2185H14.9984C16.1187 13.2185 16.8078 13.2373 16.9297 13.2701C17.164 13.3357 17.3984 13.5701 17.4734 13.8185C17.5859 14.2029 17.3281 14.6482 16.9297 14.7607C16.8031 14.7935 15.9968 14.8123 14.539 14.8123C12.4953 14.8123 12.3218 14.8029 12.1484 14.7232C11.9328 14.6248 11.7781 14.4701 11.7078 14.2826C11.675 14.1935 11.6562 13.2138 11.6562 11.3342C11.6562 8.56853 11.6562 8.50759 11.7547 8.31072C11.9234 7.95916 12.3547 7.78572 12.7203 7.92634Z" fill="#0E522D"/>
</g>
<defs>
<clipPath id="clip0_948_6041">
<rect width="24" height="24" fill="white" transform="translate(0.875 -0.000244141)"/>
</clipPath>
</defs>
</svg>
