<svg width="24" height="25" viewBox="0 0 24 25" fill="none" xmlns="http://www.w3.org/2000/svg">
<path d="M11 2.25342H9C4 2.25342 2 4.25342 2 9.25342V15.2534C2 20.2534 4 22.2534 9 22.2534H15C20 22.2534 22 20.2534 22 15.2534V13.2534" stroke="#0E522D" stroke-width="1.5" stroke-linecap="round" stroke-linejoin="round"/>
<path d="M16.0399 3.27318L8.15988 11.1532C7.85988 11.4532 7.55988 12.0432 7.49988 12.4732L7.06988 15.4832C6.90988 16.5732 7.67988 17.3332 8.76988 17.1832L11.7799 16.7532C12.1999 16.6932 12.7899 16.3932 13.0999 16.0932L20.9799 8.21318C22.3399 6.85318 22.9799 5.27318 20.9799 3.27318C18.9799 1.27318 17.3999 1.91318 16.0399 3.27318Z" stroke="#0E522D" stroke-width="1.5" stroke-miterlimit="10" stroke-linecap="round" stroke-linejoin="round"/>
<path d="M14.9099 4.40332C15.5799 6.79332 17.4499 8.66332 19.8499 9.34332" stroke="#0E522D" stroke-width="1.5" stroke-miterlimit="10" stroke-linecap="round" stroke-linejoin="round"/>
</svg>
