<svg width="24" height="25" viewBox="0 0 24 25" fill="none" xmlns="http://www.w3.org/2000/svg">
<path d="M5 10.2311C3.9 10.2311 3 11.1311 3 12.2311C3 13.3311 3.9 14.2311 5 14.2311C6.1 14.2311 7 13.3311 7 12.2311C7 11.1311 6.1 10.2311 5 10.2311Z" stroke="white" stroke-width="1.5"/>
<path d="M19 10.2311C17.9 10.2311 17 11.1311 17 12.2311C17 13.3311 17.9 14.2311 19 14.2311C20.1 14.2311 21 13.3311 21 12.2311C21 11.1311 20.1 10.2311 19 10.2311Z" stroke="white" stroke-width="1.5"/>
<path d="M12 10.2311C10.9 10.2311 10 11.1311 10 12.2311C10 13.3311 10.9 14.2311 12 14.2311C13.1 14.2311 14 13.3311 14 12.2311C14 11.1311 13.1 10.2311 12 10.2311Z" stroke="white" stroke-width="1.5"/>
</svg>
