<svg width="27" height="26" viewBox="0 0 27 26" fill="none" xmlns="http://www.w3.org/2000/svg">
<path d="M18.0392 2.16663H8.96091C5.01758 2.16663 2.66675 4.51746 2.66675 8.46079V17.5283C2.66675 21.4825 5.01758 23.8333 8.96091 23.8333H18.0284C21.9717 23.8333 24.3226 21.4825 24.3226 17.5391V8.46079C24.3334 4.51746 21.9826 2.16663 18.0392 2.16663ZM12.3626 18.9691C12.0484 19.2833 11.4526 19.5866 11.0192 19.6516L8.35425 20.0308C8.25675 20.0416 8.15925 20.0525 8.06175 20.0525C7.61758 20.0525 7.20591 19.9008 6.91341 19.6083C6.55591 19.2508 6.40425 18.7308 6.49091 18.1566L6.87008 15.4916C6.93508 15.0475 7.22758 14.4625 7.55258 14.1483L12.3842 9.31663C12.4709 9.54413 12.5576 9.77163 12.6767 10.0316C12.7851 10.2591 12.9042 10.4975 13.0342 10.7141C13.1426 10.8983 13.2617 11.0716 13.3592 11.2016C13.4784 11.3858 13.6192 11.5591 13.7059 11.6566C13.7601 11.7325 13.8034 11.7866 13.8251 11.8083C14.0959 12.1333 14.4101 12.4366 14.6809 12.6641C14.7567 12.74 14.8001 12.7833 14.8217 12.7941C14.9842 12.9241 15.1467 13.0541 15.2876 13.1516C15.4609 13.2816 15.6342 13.4008 15.8184 13.4983C16.0351 13.6283 16.2734 13.7475 16.5117 13.8666C16.7609 13.975 16.9884 14.0725 17.2159 14.1483L12.3626 18.9691ZM19.3176 12.0141L18.3209 13.0216C18.2559 13.0866 18.1692 13.1191 18.0826 13.1191C18.0501 13.1191 18.0067 13.1191 17.9851 13.1083C15.7859 12.48 14.0309 10.725 13.4026 8.52579C13.3701 8.40663 13.4026 8.27663 13.4892 8.20079L14.4967 7.19329C16.1434 5.54663 17.7142 5.57913 19.3284 7.19329C20.1517 8.01663 20.5526 8.80746 20.5526 9.63079C20.5417 10.4108 20.1409 11.1908 19.3176 12.0141Z" fill="#0E522D"/>
</svg>
