<svg width="26" height="26" viewBox="0 0 26 26" fill="none" xmlns="http://www.w3.org/2000/svg">
<path d="M12.1682 2.41724C10.8259 2.72061 9.82441 3.49773 9.2343 4.70289C8.79794 5.58391 8.82288 5.29716 8.80626 9.71055C8.79379 12.5448 8.80626 13.646 8.8395 13.9078C9.03482 15.2959 9.88259 16.4678 11.1501 17.0994C12.3345 17.6937 13.7765 17.6729 14.9609 17.0537C16.0206 16.4927 16.8227 15.4455 17.0969 14.2611C17.1676 13.9494 17.1717 13.6627 17.1717 9.91834V5.90806L17.0762 5.53404C16.9473 5.01457 16.5983 4.32472 16.2492 3.89253C15.7256 3.24008 14.9692 2.73723 14.1381 2.4962C13.8181 2.40062 13.6685 2.384 13.0991 2.37153C12.6254 2.35906 12.3594 2.37568 12.1682 2.41724Z" fill="#0E522D"/>
<path d="M6.61621 12.6363C6.46245 12.7069 6.28376 12.8939 6.22558 13.0477C6.15908 13.2181 6.17155 13.8414 6.2422 14.336C6.68686 17.3156 8.94758 19.6179 11.9065 20.1L12.2057 20.1498V21.1223V22.0947H10.8675C9.48367 22.0947 9.24679 22.1196 9.03901 22.2651C8.6359 22.5518 8.67746 23.2957 9.10965 23.5367L9.27588 23.6323H12.9953H16.7146L16.8809 23.5367C17.3131 23.2957 17.3546 22.5518 16.9515 22.2651C16.7437 22.1196 16.5069 22.0947 15.1272 22.0947H13.7849V21.1223V20.1498L14.0882 20.1C16.4902 19.7093 18.4559 18.1135 19.3702 15.8112C19.7068 14.9635 19.9229 13.4591 19.765 13.0477C19.6195 12.6612 19.1457 12.4742 18.7426 12.6404C18.3977 12.7859 18.3146 12.9479 18.2689 13.5755C18.2107 14.4274 18.0486 15.0341 17.6788 15.7531C16.4819 18.101 13.7433 19.1857 11.2249 18.313C10.0031 17.8891 8.91018 16.9291 8.31175 15.7531C7.94189 15.0341 7.77982 14.4274 7.72164 13.5755C7.68839 13.0892 7.63437 12.9147 7.48061 12.7776C7.27698 12.5905 6.86556 12.5241 6.61621 12.6363Z" fill="#0E522D"/>
</svg>
