<svg width="25" height="24" viewBox="0 0 25 24" fill="none" xmlns="http://www.w3.org/2000/svg">
<path d="M7.15491 22C8.87804 22 10.2749 20.6031 10.2749 18.88C10.2749 17.1569 8.87804 15.76 7.15491 15.76C5.43178 15.76 4.03491 17.1569 4.03491 18.88C4.03491 20.6031 5.43178 22 7.15491 22Z" stroke="white" stroke-width="1.5" stroke-linecap="round" stroke-linejoin="round"/>
<path d="M21.7149 16.8V4.59997C21.7149 1.99997 20.0849 1.63997 18.4349 2.08997L12.1949 3.78997C11.0549 4.09997 10.2749 4.99997 10.2749 6.29997V8.46997V9.92997V18.87" stroke="white" stroke-width="1.5" stroke-linecap="round" stroke-linejoin="round"/>
<path d="M18.5951 19.9201C20.3182 19.9201 21.7151 18.5232 21.7151 16.8001C21.7151 15.0769 20.3182 13.6801 18.5951 13.6801C16.872 13.6801 15.4751 15.0769 15.4751 16.8001C15.4751 18.5232 16.872 19.9201 18.5951 19.9201Z" stroke="white" stroke-width="1.5" stroke-linecap="round" stroke-linejoin="round"/>
<path d="M10.2749 9.52002L21.7149 6.40002" stroke="white" stroke-width="1.5" stroke-linecap="round" stroke-linejoin="round"/>
</svg>
