<svg width="25" height="24" viewBox="0 0 25 24" fill="none" xmlns="http://www.w3.org/2000/svg">
<path d="M12.845 22C18.3678 22 22.845 17.5228 22.845 12C22.845 6.47715 18.3678 2 12.845 2C7.32212 2 2.84497 6.47715 2.84497 12C2.84497 17.5228 7.32212 22 12.845 22Z" stroke="white" stroke-width="1.5" stroke-linecap="round" stroke-linejoin="round"/>
<path d="M11.595 14.53V9.47005C11.595 8.99005 11.395 8.80005 10.885 8.80005H9.585C9.075 8.80005 8.875 8.99005 8.875 9.47005V14.53C8.875 15.01 9.075 15.2 9.585 15.2H10.875C11.395 15.2 11.595 15.01 11.595 14.53Z" stroke="white" stroke-width="1.5" stroke-linecap="round" stroke-linejoin="round"/>
<path d="M16.875 14.53V9.47005C16.875 8.99005 16.675 8.80005 16.165 8.80005H14.875C14.365 8.80005 14.165 8.99005 14.165 9.47005V14.53C14.165 15.01 14.365 15.2 14.875 15.2H16.165C16.675 15.2 16.875 15.01 16.875 14.53Z" stroke="white" stroke-width="1.5" stroke-linecap="round" stroke-linejoin="round"/>
</svg>
