<svg width="19" height="18" viewBox="0 0 19 18" fill="none" xmlns="http://www.w3.org/2000/svg">
<circle cx="9.5" cy="9" r="8.25" fill="white" stroke="#0E522D" stroke-width="1.5"/>
<path d="M13.8188 4.9204C13.4615 5.1022 12.8262 5.4846 12.3581 5.79805C10.676 6.92853 9.27594 8.39336 8.59054 9.73699L8.49651 9.92506L8.44845 9.877C8.42337 9.84983 8.12247 9.50504 7.78186 9.11219C7.44125 8.71934 7.13825 8.37873 7.10691 8.35366C7.05467 8.31187 7.02959 8.31187 5.99105 8.31187H4.92952L4.87101 8.36202C4.82086 8.4059 4.8125 8.42888 4.8125 8.51874C4.8125 8.61068 4.82086 8.63367 4.88773 8.70263C4.92952 8.74651 5.83015 9.72236 6.89168 10.8717C7.95112 12.021 8.8601 13.001 8.91026 13.049C9.00638 13.1452 9.08996 13.164 9.19653 13.1159C9.26758 13.0846 9.28221 13.049 9.38042 12.6896C9.95089 10.5833 11.0897 8.48948 12.6277 6.72166C12.9056 6.40404 13.7289 5.57864 13.9901 5.35714C14.2012 5.17952 14.2367 5.11265 14.1845 4.98727C14.128 4.85354 13.9964 4.82846 13.8188 4.9204Z" fill="#0E522D"/>
</svg>
