<svg width="25" height="24" viewBox="0 0 25 24" fill="none" xmlns="http://www.w3.org/2000/svg">
<g clip-path="url(#clip0_948_6059)">
<path d="M10.7656 1.05921C9.22806 1.25608 7.55462 1.84671 6.30306 2.63889C4.90618 3.52483 3.64993 4.78108 2.76399 6.17796C1.92493 7.50452 1.32962 9.25296 1.15149 10.9123C1.08118 11.5639 1.11868 13.017 1.22181 13.6639C2.01399 18.6655 6.02181 22.4576 11.0656 22.9686C11.7593 23.0436 13.1374 23.0061 13.8124 22.8983C17.7171 22.2795 20.989 19.6405 22.4187 15.9514C22.8452 14.8498 23.0843 13.678 23.1265 12.4686C23.1499 11.7701 23.1452 11.7326 23.0374 11.5358C22.7234 10.9545 21.9827 10.7998 21.4812 11.2123C21.1859 11.4514 21.1343 11.6155 21.0827 12.4498C21.0218 13.3733 20.8952 14.0436 20.6281 14.8498C19.9999 16.7342 18.7577 18.3608 17.0937 19.4717C14.1499 21.4451 10.2077 21.4639 7.23587 19.5186C2.40306 16.3592 1.75149 9.54827 5.89524 5.55452C7.47962 4.02639 9.39681 3.19202 11.6562 3.04202C12.514 2.98577 12.6734 2.93421 12.9124 2.64827C13.3343 2.13264 13.1749 1.36858 12.5796 1.08264C12.4062 0.998268 12.2937 0.984207 11.8156 0.988894C11.5109 0.993582 11.0374 1.02171 10.7656 1.05921Z" fill="#0E522D"/>
<path d="M15.4578 1.85608C14.9516 2.1092 14.7687 2.7092 15.0312 3.2342C15.1437 3.44983 15.2891 3.58108 15.5469 3.69826C15.8281 3.82483 16.1234 3.82014 16.4141 3.6842C16.6953 3.55295 16.775 3.46858 16.9109 3.16858C17.3 2.28264 16.3391 1.42014 15.4578 1.85608Z" fill="#0E522D"/>
<path d="M18.8514 3.94212C18.6264 4.00775 18.3311 4.289 18.242 4.52337C18.1248 4.82337 18.1623 5.23118 18.3264 5.47962C18.7014 6.04681 19.5217 6.12181 19.9717 5.62493C20.3467 5.21243 20.3186 4.62181 19.9108 4.214C19.6155 3.91868 19.2498 3.82493 18.8514 3.94212Z" fill="#0E522D"/>
<path d="M11.8344 5.01082C11.5859 5.09051 11.375 5.25926 11.2437 5.47488L11.1172 5.6952V9.00457V12.3139L11.2578 12.5436L11.3984 12.7733L13.6016 13.8796C14.8859 14.5264 15.8797 14.9999 15.9828 15.0139C16.2266 15.0468 16.5828 14.9483 16.7797 14.7983C17.2203 14.4608 17.2625 13.7061 16.8594 13.2889C16.775 13.1999 16.0437 12.8108 14.9422 12.2577L13.1609 11.3718L13.1469 8.53113L13.1328 5.6952L13.0016 5.47488C12.8375 5.19363 12.5469 5.01551 12.2094 4.99207C12.0734 4.97801 11.9047 4.99207 11.8344 5.01082Z" fill="#0E522D"/>
<path d="M20.9139 7.23272C20.6374 7.36397 20.553 7.45303 20.4264 7.73428C20.2577 8.10459 20.3421 8.59678 20.6233 8.89678C21.0452 9.35147 21.8608 9.29053 22.2217 8.77959C22.3296 8.6249 22.3577 8.52178 22.3764 8.26397C22.3952 7.97803 22.3858 7.91709 22.2639 7.6874C22.0014 7.18584 21.4155 6.98897 20.9139 7.23272Z" fill="#0E522D"/>
</g>
<defs>
<clipPath id="clip0_948_6059">
<rect width="24" height="24" fill="white" transform="translate(0.125 -0.000244141)"/>
</clipPath>
</defs>
</svg>
